<?xml version="1.0" standalone="no"?> <!DOCTYPE svg PUBLIC "-//W3C//DTD SVG 20010904//EN" "http://www.w3.org/TR/2001/REC-SVG-20010904/DTD/svg10.dtd"> <svg version="1.0" xmlns="http://www.w3.org/2000/svg" width="1800.000000pt" height="1710.000000pt" viewBox="0 0 1800.000000 1710.000000" preserveAspectRatio="xMidYMid meet"> <g transform="translate(0.000000,1710.000000) scale(0.100000,-0.100000)" fill="#000000" stroke="none"> <path d="M5200 17053 c-278 -6 -749 -40 -920 -65 -41 -6 -104 -15 -140 -19 -200 -25 -539 -97 -780 -165 -219 -63 -452 -156 -689 -276 -245 -124 -298 -157 -553 -335 -238 -166 -527 -436 -741 -693 -240 -286 -466 -657 -646 -1055 -18 -38 -36 -79 -41 -90 -15 -33 -61 -148 -70 -175 -5 -14 -18 -50 -30 -80 -51 -132 -120 -345 -164 -505 -42 -154 -75 -287 -90 -360 -10 -44 -23 -109 -31 -145 -25 -114 -84 -516 -105 -705 -4 -38 -12 -108 -18 -155 -69 -549 -78 -849 -92 -3130 -14 -2518 -6 -3071 57 -3850 8 -102 18 -240 23 -307 5 -67 11 -127 14 -132 4 -6 11 -50 16 -98 5 -48 14 -122 20 -163 6 -41 17 -124 26 -185 30 -228 94 -549 149 -750 8 -27 21 -79 31 -115 32 -125 70 -239 140 -425 9 -22 18 -49 21 -60 2 -11 11 -33 18 -50 8 -16 28 -66 45 -110 27 -68 172 -368 201 -415 5 -8 46 -78 91 -155 186 -319 347 -526 622 -801 122 -121 239 -233 261 -249 22 -16 60 -46 85 -66 66 -52 192 -149 242 -186 67 -48 373 -231 468 -278 180 -90 358 -175 369 -175 6 0 25 -7 43 -15 87 -38 321 -116 543 -180 28 -8 73 -21 100 -29 28 -8 61 -17 75 -19 14 -3 72 -16 130 -30 58 -13 150 -32 205 -41 55 -10 136 -24 180 -31 96 -17 267 -39 465 -59 378 -39 555 -41 4190 -41 3547 0 3710 1 4085 35 360 33 461 44 575 65 41 8 120 21 175 30 94 15 132 23 310 62 107 23 255 62 344 89 25 8 53 14 62 14 10 0 33 6 51 14 18 8 98 35 178 61 203 66 299 104 500 202 356 172 562 299 865 533 99 76 316 273 401 363 108 113 256 285 279 322 10 17 42 59 70 95 59 75 118 158 128 180 4 8 15 27 25 41 9 15 43 71 76 125 32 55 68 115 80 134 60 95 211 417 281 600 28 71 74 208 105 310 17 58 36 116 41 130 11 29 36 120 48 170 5 19 20 80 34 135 33 128 52 216 72 335 9 52 23 129 30 170 56 316 116 870 135 1245 4 94 13 262 19 375 29 552 33 944 28 2955 -6 1954 -11 2380 -35 2690 -6 77 -16 214 -22 305 -15 226 -27 369 -40 470 -6 47 -18 137 -26 200 -22 175 -85 535 -121 695 -37 166 -45 203 -60 260 -15 57 -31 113 -58 200 -7 22 -27 87 -45 145 -28 91 -63 189 -116 330 -7 19 -34 85 -59 145 -26 61 -53 127 -61 148 -24 63 -232 464 -259 497 -6 8 -15 22 -19 30 -41 90 -273 410 -417 575 -81 94 -346 361 -434 437 -41 35 -344 263 -380 285 -71 44 -187 113 -190 113 -2 0 -36 19 -77 43 -96 56 -302 157 -403 197 -44 18 -102 41 -130 52 -56 23 -129 49 -225 79 -264 83 -515 144 -740 180 -69 10 -161 26 -205 34 -44 8 -102 15 -130 15 -27 0 -77 5 -110 10 -33 6 -186 18 -340 27 -252 15 -662 17 -4085 18 -2093 1 -3861 0 -3930 -2z m-3446 -1764 c22 -6 77 -29 123 -50 46 -21 86 -39 89 -39 11 0 261 -156 360 -225 407 -282 784 -660 1085 -1090 119 -169 129 -186 236 -395 68 -133 109 -229 153 -355 57 -163 66 -190 104 -335 45 -174 74 -510 60 -718 -13 -209 -11 -487 4 -562 25 -120 82 -258 148 -355 117 -175 217 -307 329 -437 22 -25 60 -72 85 -104 25 -31 52 -64 60 -73 26 -27 213 -251 259 -310 24 -31 65 -78 91 -106 114 -119 381 -441 420 -506 67 -110 93 -196 93 -304 0 -81 -4 -97 -34 -159 -24 -49 -50 -83 -94 -122 -33 -30 -64 -54 -69 -54 -5 0 -17 -6 -25 -13 -16 -13 -125 -63 -196 -90 -98 -38 -363 -101 -465 -111 -62 -6 -153 -37 -190 -64 -54 -40 -70 -78 -70 -168 0 -134 40 -274 124 -437 45 -88 56 -118 56 -157 0 -42 -4 -51 -29 -69 -28 -20 -177 -73 -301 -106 -88 -24 -148 -42 -255 -75 -49 -15 -164 -49 -255 -75 -188 -54 -286 -88 -318 -111 -47 -32 -34 -47 188 -212 144 -107 168 -121 385 -233 77 -40 151 -78 165 -85 63 -34 127 -93 154 -144 69 -127 14 -244 -174 -370 -65 -44 -85 -64 -121 -119 l-29 -45 0 -170 c0 -261 -16 -382 -70 -551 -42 -131 -92 -216 -193 -321 -72 -76 -101 -99 -170 -132 -174 -86 -274 -107 -480 -99 -177 6 -211 12 -457 72 -30 7 -91 21 -135 30 -44 10 -105 23 -135 30 -183 41 -392 75 -463 75 -122 0 -224 -107 -307 -320 -58 -150 -70 -189 -104 -340 -26 -114 -77 -638 -76 -782 0 -74 -16 -75 -51 -5 -15 29 -49 97 -77 152 -87 171 -159 326 -197 425 -20 52 -43 113 -52 135 -33 85 -43 115 -86 255 -25 80 -59 208 -77 285 -17 77 -36 154 -41 170 -8 26 -17 70 -49 230 -4 22 -18 87 -30 145 -12 58 -25 130 -30 160 -4 30 -13 82 -18 115 -6 33 -18 112 -27 175 -8 63 -20 144 -25 180 -12 77 -38 329 -50 485 -4 61 -13 157 -19 215 -9 98 -25 355 -53 865 -7 126 -13 720 -15 1480 -4 1041 -2 1350 11 1715 26 692 60 1112 133 1625 14 99 29 209 33 245 21 193 131 661 225 955 7 22 20 67 30 100 39 133 154 416 215 530 21 39 61 115 90 170 114 218 319 490 488 648 56 51 58 52 116 36z m10978 -3209 c130 -5 274 -14 320 -19 46 -6 148 -18 228 -26 80 -9 188 -23 240 -31 88 -13 130 -21 330 -60 41 -8 120 -27 175 -41 55 -14 114 -28 130 -31 17 -2 91 -22 165 -44 74 -22 149 -43 165 -48 61 -18 234 -79 375 -133 186 -71 237 -93 397 -168 35 -16 66 -29 71 -29 8 0 74 -33 162 -82 25 -14 77 -42 115 -63 243 -133 400 -236 608 -397 157 -122 446 -407 569 -562 86 -107 188 -250 188 -262 0 -3 15 -29 33 -57 63 -97 135 -251 192 -407 40 -111 60 -182 75 -262 5 -27 11 -52 15 -57 3 -6 14 -81 25 -168 16 -122 19 -188 14 -288 -6 -143 -27 -325 -45 -395 -21 -88 -70 -256 -83 -290 -109 -278 -207 -448 -408 -705 -182 -233 -418 -463 -637 -621 -100 -72 -309 -212 -404 -270 -101 -63 -391 -214 -502 -262 -38 -16 -88 -38 -110 -47 -59 -26 -287 -111 -415 -155 -75 -26 -239 -75 -330 -99 -178 -46 -270 -69 -345 -85 -44 -10 -98 -22 -120 -27 -51 -11 -443 -73 -555 -88 -110 -14 -266 -28 -465 -42 -220 -15 -988 -7 -1200 14 -260 25 -517 60 -606 83 -30 8 -68 14 -83 14 -15 0 -55 7 -89 15 -234 54 -417 102 -545 141 -81 25 -160 49 -177 54 -16 4 -64 20 -105 34 -95 33 -108 33 -159 -5 -58 -42 -274 -169 -341 -201 -92 -43 -211 -90 -285 -111 -167 -48 -239 -63 -390 -82 -231 -28 -383 -13 -580 59 -64 23 -67 41 -15 84 50 42 118 108 171 167 36 41 189 242 189 250 0 2 12 21 26 42 65 96 113 224 121 324 l6 76 -97 69 c-214 152 -490 402 -621 562 -78 96 -251 337 -274 382 -9 19 -45 89 -78 155 -192 379 -274 709 -273 1105 1 159 29 368 74 550 42 172 144 412 259 615 125 221 367 506 607 716 109 95 374 297 404 308 6 2 27 17 47 32 20 16 40 29 43 29 3 0 72 39 153 88 82 48 177 101 213 119 132 65 262 123 274 123 6 0 16 4 22 9 8 8 66 32 279 113 114 43 431 144 525 168 25 6 68 17 95 25 76 20 146 37 190 45 22 5 90 18 150 30 306 60 665 105 960 119 220 11 666 12 937 1z m-6265 -3591 c40 -25 63 -66 63 -113 0 -65 -39 -90 -260 -166 -14 -5 -50 -18 -80 -30 -30 -11 -127 -45 -215 -75 -88 -30 -205 -70 -260 -90 -55 -20 -190 -68 -300 -106 -110 -39 -219 -77 -241 -86 -110 -39 -218 71 -158 162 20 30 81 66 159 93 33 11 105 37 160 57 55 20 114 40 130 45 17 4 64 22 105 40 62 26 282 108 380 140 14 5 70 25 125 45 55 20 133 48 174 61 41 14 82 29 90 34 28 16 92 11 128 -11z m-1147 -1048 c230 -20 757 -57 995 -70 165 -10 198 -24 224 -100 17 -52 -2 -102 -52 -135 -47 -30 -42 -30 -422 1 -104 8 -253 19 -330 23 -152 9 -346 24 -548 42 -141 13 -168 24 -193 83 -19 46 -1 107 44 146 34 30 39 31 96 26 34 -3 117 -11 186 -16z m-218 -741 c60 -27 112 -50 117 -50 11 0 176 -72 258 -114 39 -20 74 -36 77 -36 3 0 38 -15 78 -34 121 -57 287 -131 393 -176 245 -104 302 -142 322 -219 9 -36 -25 -91 -67 -109 -62 -25 -82 -19 -368 114 -40 19 -75 34 -77 34 -2 0 -53 23 -112 51 -151 71 -307 142 -380 173 -58 24 -135 58 -208 91 -89 40 -177 75 -189 75 -28 0 -94 59 -101 90 -14 65 14 128 66 149 46 18 82 11 191 -39z"/> <path d="M13693 9658 c-6 -7 -16 -53 -22 -103 -7 -49 -17 -95 -23 -102 -7 -9 -55 -13 -157 -15 l-146 -3 0 -70 0 -70 120 -8 c66 -4 126 -10 134 -12 20 -8 5 -67 -64 -260 -19 -55 -45 -127 -56 -160 -11 -32 -27 -71 -35 -87 -24 -47 -18 -62 35 -86 90 -39 93 -39 163 16 108 85 183 120 323 153 99 23 160 24 222 3 67 -23 102 -51 124 -98 54 -119 -18 -244 -166 -291 -49 -16 -92 -19 -235 -20 l-175 0 -3 -70 c-4 -93 -1 -95 155 -95 351 0 528 79 602 268 31 77 29 199 -3 268 -62 134 -185 204 -355 204 -102 0 -259 -40 -368 -94 -51 -25 -83 -33 -83 -20 0 8 43 140 81 249 15 44 30 90 33 101 8 26 54 34 190 34 161 1 458 27 467 42 14 21 11 124 -3 135 -14 11 -209 2 -375 -17 -136 -15 -220 -13 -227 5 -7 19 1 68 20 118 23 62 19 73 -30 86 -59 15 -131 14 -143 -1z"/> <path d="M10611 9628 c-23 -61 -112 -283 -146 -363 -20 -49 -46 -112 -57 -140 -32 -79 -250 -576 -299 -682 -16 -34 -29 -66 -29 -71 0 -11 101 -61 140 -68 23 -5 31 -2 36 12 9 27 121 277 157 352 80 165 242 259 324 188 l28 -24 -3 -170 c-3 -190 5 -230 62 -290 49 -53 105 -72 205 -72 70 0 96 5 136 24 54 25 114 78 162 141 31 41 123 215 123 233 0 5 9 30 20 55 11 25 18 51 15 59 -8 20 -115 89 -133 86 -9 -2 -19 -17 -23 -35 -7 -36 -57 -160 -73 -183 -6 -8 -20 -32 -30 -53 -11 -21 -43 -63 -71 -95 -52 -57 -53 -57 -110 -57 -50 0 -60 3 -81 28 -23 28 -24 32 -24 215 0 164 -3 192 -20 227 -10 22 -25 47 -32 55 -55 64 -180 76 -295 29 -60 -24 -60 -26 77 266 97 205 119 253 120 266 5 35 -2 49 -27 55 -16 3 -47 12 -71 20 -58 19 -71 18 -81 -8z"/> <path d="M14987 9588 c-40 -64 -69 -829 -39 -1028 6 -41 14 -105 17 -143 9 -88 20 -99 93 -90 100 11 107 15 110 57 3 35 -2 57 -39 186 -8 30 -14 132 -17 305 -4 281 9 437 50 609 24 102 24 102 -62 111 -30 3 -65 8 -77 11 -16 3 -27 -3 -36 -18z"/> <path d="M11883 9578 c-9 -12 -21 -91 -55 -368 -18 -143 -17 -621 0 -720 23 -129 33 -169 46 -179 8 -7 38 -6 91 2 92 14 96 20 71 101 -46 150 -51 193 -50 441 1 244 6 288 55 538 10 54 23 106 29 117 16 30 3 45 -53 57 -103 23 -123 25 -134 11z"/> <path d="M15822 9578 c-8 -8 -12 -51 -12 -139 0 -101 -3 -129 -15 -139 -11 -9 -64 -12 -208 -9 l-192 4 -3 -58 c-2 -35 2 -64 9 -73 9 -11 50 -14 203 -14 138 0 197 -4 209 -13 16 -11 17 -31 15 -177 l-3 -165 -130 -6 c-151 -7 -216 -26 -274 -79 -123 -113 -82 -294 85 -376 140 -69 390 -48 453 37 12 16 30 62 40 102 15 61 21 72 38 70 23 -3 137 -67 170 -96 30 -26 44 -18 88 47 30 45 35 59 25 71 -18 21 -156 107 -233 145 -37 18 -72 41 -77 50 -5 9 -12 96 -16 193 -8 212 -24 193 166 196 52 1 101 5 109 10 17 11 24 107 10 133 -9 16 -21 17 -129 11 -171 -9 -169 -11 -172 155 l-3 127 -70 3 c-46 2 -74 -1 -83 -10z m-49 -933 c60 -8 73 -33 60 -114 -7 -51 -11 -56 -53 -79 -86 -46 -220 -13 -251 61 -25 60 20 123 98 137 38 7 55 6 146 -5z"/> <path d="M9435 9518 c-44 -5 -201 -12 -350 -16 l-270 -7 -3 -67 c-5 -113 -17 -108 236 -108 242 1 660 24 674 38 5 5 8 44 6 88 l-3 79 -105 1 c-58 1 -141 -2 -185 -8z"/> <path d="M12775 9453 c-11 -2 -130 -7 -265 -11 l-245 -7 0 -85 0 -85 105 3 c58 2 161 7 229 13 68 5 180 9 247 9 92 0 124 3 125 13 7 63 4 116 -8 135 -12 20 -21 22 -91 21 -42 -1 -86 -4 -97 -6z"/> <path d="M8858 8908 c-59 -90 -98 -205 -98 -287 0 -124 65 -204 204 -251 122 -42 244 -54 466 -45 214 7 320 19 330 35 15 24 32 152 22 162 -6 6 -31 8 -59 5 -299 -34 -601 -34 -686 -1 -32 12 -56 31 -73 56 -36 51 -31 127 14 217 18 35 32 68 32 73 0 9 -105 58 -125 58 -7 0 -19 -10 -27 -22z"/> <path d="M12259 8796 c-25 -29 -42 -78 -53 -151 -10 -65 15 -146 56 -180 39 -33 129 -75 160 -75 13 0 57 -7 98 -16 61 -13 110 -15 267 -9 122 5 198 11 208 19 22 16 38 136 21 154 -10 10 -41 10 -157 1 -196 -16 -363 -8 -417 20 -22 11 -48 31 -56 43 -19 27 -20 99 -2 150 17 46 8 55 -57 64 -40 6 -47 4 -68 -20z"/> </g> </svg>